<?xml version="1.0" encoding="UTF-8" standalone="no"?>
<!-- Created with Inkscape (http://www.inkscape.org/) -->

<svg
   xmlns:dc="http://purl.org/dc/elements/1.1/"
   xmlns:cc="http://creativecommons.org/ns#"
   xmlns:rdf="http://www.w3.org/1999/02/22-rdf-syntax-ns#"
   xmlns:svg="http://www.w3.org/2000/svg"
   xmlns="http://www.w3.org/2000/svg"
   xmlns:inkscape="http://www.inkscape.org/namespaces/inkscape"
   version="1.1"
   width="415"
   height="310"
   id="svg2"
   xml:space="preserve"><metadata
     id="metadata8"><rdf:RDF><cc:Work
         rdf:about=""><dc:format>image/svg+xml</dc:format><dc:type
           rdf:resource="http://purl.org/dc/dcmitype/StillImage" /></cc:Work></rdf:RDF></metadata><defs
     id="defs6"><clipPath
       id="clipPath18"><path
         d="M 0,0 332,0 332,248 0,248 0,0 z"
         inkscape:connector-curvature="0"
         id="path20" /></clipPath></defs><g
     transform="matrix(1.25,0,0,-1.25,0,310)"
     id="g10"><g
       id="g12" /><g
       id="g14"><g
         clip-path="url(#clipPath18)"
         id="g16"><path
           d="M 328.4138,108.9158 199.047,19.08684 176.1255,149.0815 328.4138,108.9158 z"
           inkscape:connector-curvature="0"
           id="path22"
           style="fill:#ffd773;fill-opacity:1;fill-rule:evenodd;stroke:none" /><path
           d="M 1.586246,108.9158 153.8745,149.0815 130.953,19.08684 1.586246,108.9158 z"
           inkscape:connector-curvature="0"
           id="path24"
           style="fill:#ff8b73;fill-opacity:1;fill-rule:evenodd;stroke:none" /><path
           d="m 309.9208,164.25 -90.8416,-128.65768 -66,114.31538 156.8416,14.3423 z"
           inkscape:connector-curvature="0"
           id="path26"
           style="fill:#ffc840;fill-opacity:1;fill-rule:evenodd;stroke:none" /><path
           d="M 20.07918,164.25 176.9208,149.9077 110.9208,35.59232 20.07918,164.25 z"
           inkscape:connector-curvature="0"
           id="path28"
           style="fill:#ff6140;fill-opacity:1;fill-rule:evenodd;stroke:none" /><path
           d="M 271.9593,205.2722 230.5996,53.30384 129.4818,138.1518 271.9593,205.2722 z"
           inkscape:connector-curvature="0"
           id="path30"
           style="fill:#ffb600;fill-opacity:1;fill-rule:evenodd;stroke:none" /><path
           d="M 58.04069,205.2722 200.5182,138.1518 99.40038,53.30384 58.04069,205.2722 z"
           inkscape:connector-curvature="0"
           id="path32"
           style="fill:#ff2d00;fill-opacity:1;fill-rule:evenodd;stroke:none" /><path
           d="M 221.4544,234.688 234.5653,77.73865 110.5258,122.8853 221.4544,234.688 z"
           inkscape:connector-curvature="0"
           id="path34"
           style="fill:#70d2f8;fill-opacity:1;fill-rule:evenodd;stroke:none" /><path
           d="M 108.5456,233.688 219.4742,121.8853 95.43473,76.73865 108.5456,233.688 z"
           inkscape:connector-curvature="0"
           id="path36"
           style="fill:#3ec5f9;fill-opacity:1;fill-rule:evenodd;stroke:none" /><path
           d="m 165,246 66,-143 -132,0 66,143 z"
           inkscape:connector-curvature="0"
           id="path38"
           style="fill:#00aef1;fill-opacity:1;fill-rule:evenodd;stroke:none" /><path
           d="m 165,10 c 38.6599,0 70,31.34007 70,70 0,38.6599 -31.3401,70 -70,70 -38.6599,0 -70,-31.3401 -70,-70 0,-38.65993 31.3401,-70 70,-70 z"
           inkscape:connector-curvature="0"
           id="path40"
           style="fill:#00aef1;fill-opacity:1;fill-rule:evenodd;stroke:none" /></g></g></g></svg>